<?xml version="1.0" encoding="UTF-8" standalone="no"?>
<!DOCTYPE svg PUBLIC "-//W3C//DTD SVG 1.1//EN"
 "http://www.w3.org/Graphics/SVG/1.1/DTD/svg11.dtd">
<!-- Generated by graphviz version 5.0.0 (20220707.1540)
 -->
<!-- Title: dependencies Pages: 1 -->
<svg width="2901pt" height="247pt"
 viewBox="0.00 0.00 2901.00 246.80" xmlns="http://www.w3.org/2000/svg" xmlns:xlink="http://www.w3.org/1999/xlink">
<g id="graph0" class="graph" transform="scale(1 1) rotate(0) translate(4 242.8)">
<title>dependencies</title>
<polygon fill="white" stroke="transparent" points="-4,4 -4,-242.8 2897,-242.8 2897,4 -4,4"/>
<text text-anchor="middle" x="1446.5" y="-8.2" font-family="sans-serif" font-size="14.00">dependencies</text>
<g id="clust1" class="cluster">
<title>cluster_RestAdminModule</title>
<polygon fill="none" stroke="black" stroke-dasharray="1,5" points="8,-32.8 8,-230.8 2885,-230.8 2885,-32.8 8,-32.8"/>
</g>
<g id="clust13" class="cluster">
<title>cluster_RestAdminModule_providers</title>
<polygon fill="none" stroke="black" points="1445,-40.8 1445,-92.8 2877,-92.8 2877,-40.8 1445,-40.8"/>
</g>
<g id="clust11" class="cluster">
<title>cluster_RestAdminModule_exports</title>
<polygon fill="none" stroke="black" points="849,-170.8 849,-222.8 2155,-222.8 2155,-170.8 849,-170.8"/>
</g>
<g id="clust2" class="cluster">
<title>cluster_RestAdminModule_declarations</title>
<polygon fill="none" stroke="black" points="16,-40.8 16,-92.8 1437,-92.8 1437,-40.8 16,-40.8"/>
</g>
<!-- RestResourceListComponent -->
<g id="node1" class="node">
<title>RestResourceListComponent</title>
<polygon fill="#ffffb3" stroke="black" points="1429.09,-84.8 1248.91,-84.8 1248.91,-48.8 1429.09,-48.8 1429.09,-84.8"/>
<text text-anchor="middle" x="1339" y="-62.6" font-family="Times,serif" font-size="14.00">RestResourceListComponent</text>
</g>
<!-- RestAdminModule -->
<g id="node8" class="node">
<title>RestAdminModule</title>
<polygon fill="#8dd3c7" stroke="black" points="1593.83,-149.8 1590.83,-153.8 1569.83,-153.8 1566.83,-149.8 1470.17,-149.8 1470.17,-113.8 1593.83,-113.8 1593.83,-149.8"/>
<text text-anchor="middle" x="1532" y="-127.6" font-family="Times,serif" font-size="14.00">RestAdminModule</text>
</g>
<!-- RestResourceListComponent&#45;&gt;RestAdminModule -->
<g id="edge1" class="edge">
<title>RestResourceListComponent&#45;&gt;RestAdminModule</title>
<path fill="none" stroke="black" d="M1374.87,-84.92C1374.87,-99.58 1374.87,-117.8 1374.87,-117.8 1374.87,-117.8 1459.9,-117.8 1459.9,-117.8"/>
<polygon fill="black" stroke="black" points="1459.9,-121.3 1469.9,-117.8 1459.9,-114.3 1459.9,-121.3"/>
</g>
<!-- RestResourceAddComponent -->
<g id="node2" class="node">
<title>RestResourceAddComponent</title>
<polygon fill="#ffffb3" stroke="black" points="1231.42,-84.8 1048.58,-84.8 1048.58,-48.8 1231.42,-48.8 1231.42,-84.8"/>
<text text-anchor="middle" x="1140" y="-62.6" font-family="Times,serif" font-size="14.00">RestResourceAddComponent</text>
</g>
<!-- RestResourceAddComponent&#45;&gt;RestAdminModule -->
<g id="edge2" class="edge">
<title>RestResourceAddComponent&#45;&gt;RestAdminModule</title>
<path fill="none" stroke="black" d="M1151.35,-84.81C1151.35,-100.85 1151.35,-121.8 1151.35,-121.8 1151.35,-121.8 1459.99,-121.8 1459.99,-121.8"/>
<polygon fill="black" stroke="black" points="1459.99,-125.3 1469.99,-121.8 1459.99,-118.3 1459.99,-125.3"/>
</g>
<!-- RestResourceDeleteComponent -->
<g id="node3" class="node">
<title>RestResourceDeleteComponent</title>
<polygon fill="#ffffb3" stroke="black" points="1030.34,-84.8 835.66,-84.8 835.66,-48.8 1030.34,-48.8 1030.34,-84.8"/>
<text text-anchor="middle" x="933" y="-62.6" font-family="Times,serif" font-size="14.00">RestResourceDeleteComponent</text>
</g>
<!-- RestResourceDeleteComponent&#45;&gt;RestAdminModule -->
<g id="edge3" class="edge">
<title>RestResourceDeleteComponent&#45;&gt;RestAdminModule</title>
<path fill="none" stroke="black" d="M943.71,-84.83C943.71,-101.86 943.71,-124.8 943.71,-124.8 943.71,-124.8 1460.15,-124.8 1460.15,-124.8"/>
<polygon fill="black" stroke="black" points="1460.15,-128.3 1470.15,-124.8 1460.15,-121.3 1460.15,-128.3"/>
</g>
<!-- RestMainComponentComponent -->
<g id="node4" class="node">
<title>RestMainComponentComponent</title>
<polygon fill="#ffffb3" stroke="black" points="817.6,-84.8 616.4,-84.8 616.4,-48.8 817.6,-48.8 817.6,-84.8"/>
<text text-anchor="middle" x="717" y="-62.6" font-family="Times,serif" font-size="14.00">RestMainComponentComponent</text>
</g>
<!-- RestMainComponentComponent&#45;&gt;RestAdminModule -->
<g id="edge4" class="edge">
<title>RestMainComponentComponent&#45;&gt;RestAdminModule</title>
<path fill="none" stroke="black" d="M717,-85.07C717,-103.36 717,-128.8 717,-128.8 717,-128.8 1460.07,-128.8 1460.07,-128.8"/>
<polygon fill="black" stroke="black" points="1460.07,-132.3 1470.07,-128.8 1460.07,-125.3 1460.07,-132.3"/>
</g>
<!-- RestResourceEditorFieldsComponent -->
<g id="node5" class="node">
<title>RestResourceEditorFieldsComponent</title>
<polygon fill="#ffffb3" stroke="black" points="598.53,-84.8 371.47,-84.8 371.47,-48.8 598.53,-48.8 598.53,-84.8"/>
<text text-anchor="middle" x="485" y="-62.6" font-family="Times,serif" font-size="14.00">RestResourceEditorFieldsComponent</text>
</g>
<!-- RestResourceEditorFieldsComponent&#45;&gt;RestAdminModule -->
<g id="edge5" class="edge">
<title>RestResourceEditorFieldsComponent&#45;&gt;RestAdminModule</title>
<path fill="none" stroke="black" d="M485,-84.91C485,-104.14 485,-131.8 485,-131.8 485,-131.8 1460.03,-131.8 1460.03,-131.8"/>
<polygon fill="black" stroke="black" points="1460.03,-135.3 1470.03,-131.8 1460.03,-128.3 1460.03,-135.3"/>
</g>
<!-- RestResourceDetailComponent -->
<g id="node6" class="node">
<title>RestResourceDetailComponent</title>
<polygon fill="#ffffb3" stroke="black" points="353.02,-84.8 160.98,-84.8 160.98,-48.8 353.02,-48.8 353.02,-84.8"/>
<text text-anchor="middle" x="257" y="-62.6" font-family="Times,serif" font-size="14.00">RestResourceDetailComponent</text>
</g>
<!-- RestResourceDetailComponent&#45;&gt;RestAdminModule -->
<g id="edge6" class="edge">
<title>RestResourceDetailComponent&#45;&gt;RestAdminModule</title>
<path fill="none" stroke="black" d="M257,-84.93C257,-105.37 257,-135.8 257,-135.8 257,-135.8 1460.07,-135.8 1460.07,-135.8"/>
<polygon fill="black" stroke="black" points="1460.07,-139.3 1470.07,-135.8 1460.07,-132.3 1460.07,-139.3"/>
</g>
<!-- AttributeDirective -->
<g id="node7" class="node">
<title>AttributeDirective</title>
<polygon fill="#ffffb3" stroke="black" points="142.13,-84.8 23.87,-84.8 23.87,-48.8 142.13,-48.8 142.13,-84.8"/>
<text text-anchor="middle" x="83" y="-62.6" font-family="Times,serif" font-size="14.00">AttributeDirective</text>
</g>
<!-- AttributeDirective&#45;&gt;RestAdminModule -->
<g id="edge7" class="edge">
<title>AttributeDirective&#45;&gt;RestAdminModule</title>
<path fill="none" stroke="black" d="M83,-84.84C83,-106.46 83,-139.8 83,-139.8 83,-139.8 1460.2,-139.8 1460.2,-139.8"/>
<polygon fill="black" stroke="black" points="1460.2,-143.3 1470.2,-139.8 1460.2,-136.3 1460.2,-143.3"/>
</g>
<!-- RestResourceListComponent  -->
<g id="node9" class="node">
<title>RestResourceListComponent </title>
<polygon fill="#fb8072" stroke="black" points="2146.59,-214.8 1963.41,-214.8 1963.41,-178.8 2146.59,-178.8 2146.59,-214.8"/>
<text text-anchor="middle" x="2055" y="-192.6" font-family="Times,serif" font-size="14.00">RestResourceListComponent </text>
</g>
<!-- RestAdminModule&#45;&gt;RestResourceListComponent  -->
<g id="edge8" class="edge">
<title>RestAdminModule&#45;&gt;RestResourceListComponent </title>
<path fill="none" stroke="black" stroke-dasharray="5,2" d="M1593.7,-142.8C1714.19,-142.8 1969.1,-142.8 1969.1,-142.8 1969.1,-142.8 1969.1,-168.52 1969.1,-168.52"/>
<polygon fill="black" stroke="black" points="1965.6,-168.52 1969.1,-178.52 1972.6,-168.52 1965.6,-168.52"/>
</g>
<!-- RestResourceAddComponent  -->
<g id="node10" class="node">
<title>RestResourceAddComponent </title>
<polygon fill="#fb8072" stroke="black" points="1944.92,-214.8 1759.08,-214.8 1759.08,-178.8 1944.92,-178.8 1944.92,-214.8"/>
<text text-anchor="middle" x="1852" y="-192.6" font-family="Times,serif" font-size="14.00">RestResourceAddComponent </text>
</g>
<!-- RestAdminModule&#45;&gt;RestResourceAddComponent  -->
<g id="edge9" class="edge">
<title>RestAdminModule&#45;&gt;RestResourceAddComponent </title>
<path fill="none" stroke="black" stroke-dasharray="5,2" d="M1593.83,-146.8C1667.53,-146.8 1780.85,-146.8 1780.85,-146.8 1780.85,-146.8 1780.85,-168.75 1780.85,-168.75"/>
<polygon fill="black" stroke="black" points="1777.35,-168.75 1780.85,-178.75 1784.35,-168.75 1777.35,-168.75"/>
</g>
<!-- RestResourceDeleteComponent  -->
<g id="node11" class="node">
<title>RestResourceDeleteComponent </title>
<polygon fill="#fb8072" stroke="black" points="1741.34,-214.8 1542.66,-214.8 1542.66,-178.8 1741.34,-178.8 1741.34,-214.8"/>
<text text-anchor="middle" x="1642" y="-192.6" font-family="Times,serif" font-size="14.00">RestResourceDeleteComponent </text>
</g>
<!-- RestAdminModule&#45;&gt;RestResourceDeleteComponent  -->
<g id="edge10" class="edge">
<title>RestAdminModule&#45;&gt;RestResourceDeleteComponent </title>
<path fill="none" stroke="black" stroke-dasharray="5,2" d="M1568.25,-149.91C1568.25,-149.91 1568.25,-168.79 1568.25,-168.79"/>
<polygon fill="black" stroke="black" points="1564.75,-168.79 1568.25,-178.79 1571.75,-168.79 1564.75,-168.79"/>
</g>
<!-- RestMainComponentComponent  -->
<g id="node12" class="node">
<title>RestMainComponentComponent </title>
<polygon fill="#fb8072" stroke="black" points="1525.1,-214.8 1320.9,-214.8 1320.9,-178.8 1525.1,-178.8 1525.1,-214.8"/>
<text text-anchor="middle" x="1423" y="-192.6" font-family="Times,serif" font-size="14.00">RestMainComponentComponent </text>
</g>
<!-- RestAdminModule&#45;&gt;RestMainComponentComponent  -->
<g id="edge11" class="edge">
<title>RestAdminModule&#45;&gt;RestMainComponentComponent </title>
<path fill="none" stroke="black" stroke-dasharray="5,2" d="M1497.82,-149.91C1497.82,-149.91 1497.82,-168.79 1497.82,-168.79"/>
<polygon fill="black" stroke="black" points="1494.32,-168.79 1497.82,-178.79 1501.32,-168.79 1494.32,-168.79"/>
</g>
<!-- RestResourceEditorFieldsComponent  -->
<g id="node13" class="node">
<title>RestResourceEditorFieldsComponent </title>
<polygon fill="#fb8072" stroke="black" points="1302.53,-214.8 1071.47,-214.8 1071.47,-178.8 1302.53,-178.8 1302.53,-214.8"/>
<text text-anchor="middle" x="1187" y="-192.6" font-family="Times,serif" font-size="14.00">RestResourceEditorFieldsComponent </text>
</g>
<!-- RestAdminModule&#45;&gt;RestResourceEditorFieldsComponent  -->
<g id="edge12" class="edge">
<title>RestAdminModule&#45;&gt;RestResourceEditorFieldsComponent </title>
<path fill="none" stroke="black" stroke-dasharray="5,2" d="M1470.29,-146.8C1394.46,-146.8 1275.74,-146.8 1275.74,-146.8 1275.74,-146.8 1275.74,-168.75 1275.74,-168.75"/>
<polygon fill="black" stroke="black" points="1272.24,-168.75 1275.74,-178.75 1279.24,-168.75 1272.24,-168.75"/>
</g>
<!-- RestResourceDetailComponent  -->
<g id="node14" class="node">
<title>RestResourceDetailComponent </title>
<polygon fill="#fb8072" stroke="black" points="1053.02,-214.8 856.98,-214.8 856.98,-178.8 1053.02,-178.8 1053.02,-214.8"/>
<text text-anchor="middle" x="955" y="-192.6" font-family="Times,serif" font-size="14.00">RestResourceDetailComponent </text>
</g>
<!-- RestAdminModule&#45;&gt;RestResourceDetailComponent  -->
<g id="edge13" class="edge">
<title>RestAdminModule&#45;&gt;RestResourceDetailComponent </title>
<path fill="none" stroke="black" stroke-dasharray="5,2" d="M1470.14,-142.8C1337.89,-142.8 1039.61,-142.8 1039.61,-142.8 1039.61,-142.8 1039.61,-168.52 1039.61,-168.52"/>
<polygon fill="black" stroke="black" points="1036.11,-168.52 1039.61,-178.52 1043.11,-168.52 1036.11,-168.52"/>
</g>
<!-- AuthGuard -->
<g id="node15" class="node">
<title>AuthGuard</title>
<ellipse fill="#fdb462" stroke="black" cx="2815" cy="-66.8" rx="54.47" ry="18"/>
<text text-anchor="middle" x="2815" y="-62.6" font-family="Times,serif" font-size="14.00">AuthGuard</text>
</g>
<!-- AuthGuard&#45;&gt;RestAdminModule -->
<g id="edge14" class="edge">
<title>AuthGuard&#45;&gt;RestAdminModule</title>
<path fill="none" stroke="black" d="M2815,-84.84C2815,-106.46 2815,-139.8 2815,-139.8 2815,-139.8 1603.88,-139.8 1603.88,-139.8"/>
<polygon fill="black" stroke="black" points="1603.88,-136.3 1593.88,-139.8 1603.88,-143.3 1603.88,-136.3"/>
</g>
<!-- isAuthGuard -->
<g id="node16" class="node">
<title>isAuthGuard</title>
<ellipse fill="#fdb462" stroke="black" cx="2682" cy="-66.8" rx="60.85" ry="18"/>
<text text-anchor="middle" x="2682" y="-62.6" font-family="Times,serif" font-size="14.00">isAuthGuard</text>
</g>
<!-- isAuthGuard&#45;&gt;RestAdminModule -->
<g id="edge15" class="edge">
<title>isAuthGuard&#45;&gt;RestAdminModule</title>
<path fill="none" stroke="black" d="M2682,-84.93C2682,-105.37 2682,-135.8 2682,-135.8 2682,-135.8 1603.83,-135.8 1603.83,-135.8"/>
<polygon fill="black" stroke="black" points="1603.83,-132.3 1593.83,-135.8 1603.83,-139.3 1603.83,-132.3"/>
</g>
<!-- RestResourceService -->
<g id="node17" class="node">
<title>RestResourceService</title>
<ellipse fill="#fdb462" stroke="black" cx="2510" cy="-66.8" rx="93.18" ry="18"/>
<text text-anchor="middle" x="2510" y="-62.6" font-family="Times,serif" font-size="14.00">RestResourceService</text>
</g>
<!-- RestResourceService&#45;&gt;RestAdminModule -->
<g id="edge16" class="edge">
<title>RestResourceService&#45;&gt;RestAdminModule</title>
<path fill="none" stroke="black" d="M2510,-84.91C2510,-104.14 2510,-131.8 2510,-131.8 2510,-131.8 1603.92,-131.8 1603.92,-131.8"/>
<polygon fill="black" stroke="black" points="1603.92,-128.3 1593.92,-131.8 1603.92,-135.3 1603.92,-128.3"/>
</g>
<!-- RestAdminConfigService -->
<g id="node18" class="node">
<title>RestAdminConfigService</title>
<ellipse fill="#fdb462" stroke="black" cx="2288" cy="-66.8" rx="110.63" ry="18"/>
<text text-anchor="middle" x="2288" y="-62.6" font-family="Times,serif" font-size="14.00">RestAdminConfigService</text>
</g>
<!-- RestAdminConfigService&#45;&gt;RestAdminModule -->
<g id="edge17" class="edge">
<title>RestAdminConfigService&#45;&gt;RestAdminModule</title>
<path fill="none" stroke="black" d="M2288,-85.07C2288,-103.36 2288,-128.8 2288,-128.8 2288,-128.8 1603.87,-128.8 1603.87,-128.8"/>
<polygon fill="black" stroke="black" points="1603.87,-125.3 1593.87,-128.8 1603.87,-132.3 1603.87,-125.3"/>
</g>
<!-- RestExportService -->
<g id="node19" class="node">
<title>RestExportService</title>
<ellipse fill="#fdb462" stroke="black" cx="2076" cy="-66.8" rx="83.39" ry="18"/>
<text text-anchor="middle" x="2076" y="-62.6" font-family="Times,serif" font-size="14.00">RestExportService</text>
</g>
<!-- RestExportService&#45;&gt;RestAdminModule -->
<g id="edge18" class="edge">
<title>RestExportService&#45;&gt;RestAdminModule</title>
<path fill="none" stroke="black" d="M2069.68,-84.83C2069.68,-101.86 2069.68,-124.8 2069.68,-124.8 2069.68,-124.8 1603.68,-124.8 1603.68,-124.8"/>
<polygon fill="black" stroke="black" points="1603.68,-121.3 1593.68,-124.8 1603.68,-128.3 1603.68,-121.3"/>
</g>
<!-- RestLangService -->
<g id="node20" class="node">
<title>RestLangService</title>
<ellipse fill="#fdb462" stroke="black" cx="1898" cy="-66.8" rx="77.01" ry="18"/>
<text text-anchor="middle" x="1898" y="-62.6" font-family="Times,serif" font-size="14.00">RestLangService</text>
</g>
<!-- RestLangService&#45;&gt;RestAdminModule -->
<g id="edge19" class="edge">
<title>RestLangService&#45;&gt;RestAdminModule</title>
<path fill="none" stroke="black" d="M1882.98,-84.51C1882.98,-100.58 1882.98,-121.8 1882.98,-121.8 1882.98,-121.8 1603.94,-121.8 1603.94,-121.8"/>
<polygon fill="black" stroke="black" points="1603.94,-118.3 1593.94,-121.8 1603.94,-125.3 1603.94,-118.3"/>
</g>
<!-- NotificationService -->
<g id="node21" class="node">
<title>NotificationService</title>
<ellipse fill="#fdb462" stroke="black" cx="1716" cy="-66.8" rx="86.81" ry="18"/>
<text text-anchor="middle" x="1716" y="-62.6" font-family="Times,serif" font-size="14.00">NotificationService</text>
</g>
<!-- NotificationService&#45;&gt;RestAdminModule -->
<g id="edge20" class="edge">
<title>NotificationService&#45;&gt;RestAdminModule</title>
<path fill="none" stroke="black" d="M1685.26,-83.78C1685.26,-98.62 1685.26,-117.8 1685.26,-117.8 1685.26,-117.8 1603.89,-117.8 1603.89,-117.8"/>
<polygon fill="black" stroke="black" points="1603.89,-114.3 1593.89,-117.8 1603.89,-121.3 1603.89,-114.3"/>
</g>
<!-- RestShareService -->
<g id="node22" class="node">
<title>RestShareService</title>
<ellipse fill="#fdb462" stroke="black" cx="1532" cy="-66.8" rx="79.3" ry="18"/>
<text text-anchor="middle" x="1532" y="-62.6" font-family="Times,serif" font-size="14.00">RestShareService</text>
</g>
<!-- RestShareService&#45;&gt;RestAdminModule -->
<g id="edge21" class="edge">
<title>RestShareService&#45;&gt;RestAdminModule</title>
<path fill="none" stroke="black" d="M1532,-84.91C1532,-84.91 1532,-103.79 1532,-103.79"/>
<polygon fill="black" stroke="black" points="1528.5,-103.79 1532,-113.79 1535.5,-103.79 1528.5,-103.79"/>
</g>
</g>
</svg>
