<?xml version="1.0" encoding="UTF-8" standalone="no"?>
<!DOCTYPE svg PUBLIC "-//W3C//DTD SVG 1.1//EN"
 "http://www.w3.org/Graphics/SVG/1.1/DTD/svg11.dtd">
<!-- Generated by graphviz version 5.0.0 (20220707.1540)
 -->
<!-- Title: dependencies Pages: 1 -->
<svg width="2901pt" height="247pt"
 viewBox="0.00 0.00 2901.00 246.80" xmlns="http://www.w3.org/2000/svg" xmlns:xlink="http://www.w3.org/1999/xlink">
<g id="graph0" class="graph" transform="scale(1 1) rotate(0) translate(4 242.8)">
<title>dependencies</title>
<polygon fill="white" stroke="transparent" points="-4,4 -4,-242.8 2897,-242.8 2897,4 -4,4"/>
<text text-anchor="middle" x="1446.5" y="-8.2" font-family="sans-serif" font-size="14.00">dependencies</text>
<g id="clust1" class="cluster">
<title>cluster_RestAdminModule</title>
<polygon fill="none" stroke="black" stroke-dasharray="1,5" points="8,-32.8 8,-230.8 2885,-230.8 2885,-32.8 8,-32.8"/>
</g>
<g id="clust2" class="cluster">
<title>cluster_RestAdminModule_declarations</title>
<polygon fill="none" stroke="black" points="1456,-40.8 1456,-92.8 2877,-92.8 2877,-40.8 1456,-40.8"/>
</g>
<g id="clust11" class="cluster">
<title>cluster_RestAdminModule_exports</title>
<polygon fill="none" stroke="black" points="703,-170.8 703,-222.8 2009,-222.8 2009,-170.8 703,-170.8"/>
</g>
<g id="clust13" class="cluster">
<title>cluster_RestAdminModule_providers</title>
<polygon fill="none" stroke="black" points="16,-40.8 16,-92.8 1448,-92.8 1448,-40.8 16,-40.8"/>
</g>
<!-- RestResourceListComponent -->
<g id="node1" class="node">
<title>RestResourceListComponent</title>
<polygon fill="#ffffb3" stroke="black" points="2869.09,-84.8 2688.91,-84.8 2688.91,-48.8 2869.09,-48.8 2869.09,-84.8"/>
<text text-anchor="middle" x="2779" y="-62.6" font-family="Times,serif" font-size="14.00">RestResourceListComponent</text>
</g>
<!-- RestAdminModule -->
<g id="node8" class="node">
<title>RestAdminModule</title>
<polygon fill="#8dd3c7" stroke="black" points="1447.83,-149.8 1444.83,-153.8 1423.83,-153.8 1420.83,-149.8 1324.17,-149.8 1324.17,-113.8 1447.83,-113.8 1447.83,-149.8"/>
<text text-anchor="middle" x="1386" y="-127.6" font-family="Times,serif" font-size="14.00">RestAdminModule</text>
</g>
<!-- RestResourceListComponent&#45;&gt;RestAdminModule -->
<g id="edge1" class="edge">
<title>RestResourceListComponent&#45;&gt;RestAdminModule</title>
<path fill="none" stroke="black" d="M2779,-85.08C2779,-106.12 2779,-137.8 2779,-137.8 2779,-137.8 1458.11,-137.8 1458.11,-137.8"/>
<polygon fill="black" stroke="black" points="1458.11,-134.3 1448.11,-137.8 1458.11,-141.3 1458.11,-134.3"/>
</g>
<!-- RestResourceAddComponent -->
<g id="node2" class="node">
<title>RestResourceAddComponent</title>
<polygon fill="#ffffb3" stroke="black" points="2671.42,-84.8 2488.58,-84.8 2488.58,-48.8 2671.42,-48.8 2671.42,-84.8"/>
<text text-anchor="middle" x="2580" y="-62.6" font-family="Times,serif" font-size="14.00">RestResourceAddComponent</text>
</g>
<!-- RestResourceAddComponent&#45;&gt;RestAdminModule -->
<g id="edge2" class="edge">
<title>RestResourceAddComponent&#45;&gt;RestAdminModule</title>
<path fill="none" stroke="black" d="M2580,-85.11C2580,-104.95 2580,-133.8 2580,-133.8 2580,-133.8 1457.68,-133.8 1457.68,-133.8"/>
<polygon fill="black" stroke="black" points="1457.68,-130.3 1447.68,-133.8 1457.68,-137.3 1457.68,-130.3"/>
</g>
<!-- RestResourceDeleteComponent -->
<g id="node3" class="node">
<title>RestResourceDeleteComponent</title>
<polygon fill="#ffffb3" stroke="black" points="2470.34,-84.8 2275.66,-84.8 2275.66,-48.8 2470.34,-48.8 2470.34,-84.8"/>
<text text-anchor="middle" x="2373" y="-62.6" font-family="Times,serif" font-size="14.00">RestResourceDeleteComponent</text>
</g>
<!-- RestResourceDeleteComponent&#45;&gt;RestAdminModule -->
<g id="edge3" class="edge">
<title>RestResourceDeleteComponent&#45;&gt;RestAdminModule</title>
<path fill="none" stroke="black" d="M2373,-85.02C2373,-103.63 2373,-129.8 2373,-129.8 2373,-129.8 1457.74,-129.8 1457.74,-129.8"/>
<polygon fill="black" stroke="black" points="1457.74,-126.3 1447.74,-129.8 1457.74,-133.3 1457.74,-126.3"/>
</g>
<!-- RestMainComponentComponent -->
<g id="node4" class="node">
<title>RestMainComponentComponent</title>
<polygon fill="#ffffb3" stroke="black" points="2257.6,-84.8 2056.4,-84.8 2056.4,-48.8 2257.6,-48.8 2257.6,-84.8"/>
<text text-anchor="middle" x="2157" y="-62.6" font-family="Times,serif" font-size="14.00">RestMainComponentComponent</text>
</g>
<!-- RestMainComponentComponent&#45;&gt;RestAdminModule -->
<g id="edge4" class="edge">
<title>RestMainComponentComponent&#45;&gt;RestAdminModule</title>
<path fill="none" stroke="black" d="M2157,-84.82C2157,-102.17 2157,-125.8 2157,-125.8 2157,-125.8 1457.79,-125.8 1457.79,-125.8"/>
<polygon fill="black" stroke="black" points="1457.79,-122.3 1447.79,-125.8 1457.79,-129.3 1457.79,-122.3"/>
</g>
<!-- RestResourceEditorFieldsComponent -->
<g id="node5" class="node">
<title>RestResourceEditorFieldsComponent</title>
<polygon fill="#ffffb3" stroke="black" points="2038.53,-84.8 1811.47,-84.8 1811.47,-48.8 2038.53,-48.8 2038.53,-84.8"/>
<text text-anchor="middle" x="1925" y="-62.6" font-family="Times,serif" font-size="14.00">RestResourceEditorFieldsComponent</text>
</g>
<!-- RestResourceEditorFieldsComponent&#45;&gt;RestAdminModule -->
<g id="edge5" class="edge">
<title>RestResourceEditorFieldsComponent&#45;&gt;RestAdminModule</title>
<path fill="none" stroke="black" d="M1878.4,-84.81C1878.4,-100.85 1878.4,-121.8 1878.4,-121.8 1878.4,-121.8 1457.86,-121.8 1457.86,-121.8"/>
<polygon fill="black" stroke="black" points="1457.86,-118.3 1447.86,-121.8 1457.86,-125.3 1457.86,-118.3"/>
</g>
<!-- RestResourceDetailComponent -->
<g id="node6" class="node">
<title>RestResourceDetailComponent</title>
<polygon fill="#ffffb3" stroke="black" points="1793.02,-84.8 1600.98,-84.8 1600.98,-48.8 1793.02,-48.8 1793.02,-84.8"/>
<text text-anchor="middle" x="1697" y="-62.6" font-family="Times,serif" font-size="14.00">RestResourceDetailComponent</text>
</g>
<!-- RestResourceDetailComponent&#45;&gt;RestAdminModule -->
<g id="edge6" class="edge">
<title>RestResourceDetailComponent&#45;&gt;RestAdminModule</title>
<path fill="none" stroke="black" d="M1606.89,-84.92C1606.89,-99.58 1606.89,-117.8 1606.89,-117.8 1606.89,-117.8 1457.82,-117.8 1457.82,-117.8"/>
<polygon fill="black" stroke="black" points="1457.82,-114.3 1447.82,-117.8 1457.82,-121.3 1457.82,-114.3"/>
</g>
<!-- AttributeDirective -->
<g id="node7" class="node">
<title>AttributeDirective</title>
<polygon fill="#ffffb3" stroke="black" points="1582.13,-84.8 1463.87,-84.8 1463.87,-48.8 1582.13,-48.8 1582.13,-84.8"/>
<text text-anchor="middle" x="1523" y="-62.6" font-family="Times,serif" font-size="14.00">AttributeDirective</text>
</g>
<!-- AttributeDirective&#45;&gt;RestAdminModule -->
<g id="edge7" class="edge">
<title>AttributeDirective&#45;&gt;RestAdminModule</title>
<path fill="none" stroke="black" d="M1463.58,-66.8C1452.37,-66.8 1444.07,-66.8 1444.07,-66.8 1444.07,-66.8 1444.07,-103.69 1444.07,-103.69"/>
<polygon fill="black" stroke="black" points="1440.57,-103.69 1444.07,-113.69 1447.57,-103.69 1440.57,-103.69"/>
</g>
<!-- RestResourceListComponent  -->
<g id="node9" class="node">
<title>RestResourceListComponent </title>
<polygon fill="#fb8072" stroke="black" points="2000.59,-214.8 1817.41,-214.8 1817.41,-178.8 2000.59,-178.8 2000.59,-214.8"/>
<text text-anchor="middle" x="1909" y="-192.6" font-family="Times,serif" font-size="14.00">RestResourceListComponent </text>
</g>
<!-- RestAdminModule&#45;&gt;RestResourceListComponent  -->
<g id="edge8" class="edge">
<title>RestAdminModule&#45;&gt;RestResourceListComponent </title>
<path fill="none" stroke="black" stroke-dasharray="5,2" d="M1447.89,-141.8C1592.35,-141.8 1939.6,-141.8 1939.6,-141.8 1939.6,-141.8 1939.6,-168.79 1939.6,-168.79"/>
<polygon fill="black" stroke="black" points="1936.1,-168.79 1939.6,-178.79 1943.1,-168.79 1936.1,-168.79"/>
</g>
<!-- RestResourceAddComponent  -->
<g id="node10" class="node">
<title>RestResourceAddComponent </title>
<polygon fill="#fb8072" stroke="black" points="1798.92,-214.8 1613.08,-214.8 1613.08,-178.8 1798.92,-178.8 1798.92,-214.8"/>
<text text-anchor="middle" x="1706" y="-192.6" font-family="Times,serif" font-size="14.00">RestResourceAddComponent </text>
</g>
<!-- RestAdminModule&#45;&gt;RestResourceAddComponent  -->
<g id="edge9" class="edge">
<title>RestAdminModule&#45;&gt;RestResourceAddComponent </title>
<path fill="none" stroke="black" stroke-dasharray="5,2" d="M1447.9,-145.8C1540.2,-145.8 1703.15,-145.8 1703.15,-145.8 1703.15,-145.8 1703.15,-168.68 1703.15,-168.68"/>
<polygon fill="black" stroke="black" points="1699.65,-168.68 1703.15,-178.68 1706.65,-168.68 1699.65,-168.68"/>
</g>
<!-- RestResourceDeleteComponent  -->
<g id="node11" class="node">
<title>RestResourceDeleteComponent </title>
<polygon fill="#fb8072" stroke="black" points="1595.34,-214.8 1396.66,-214.8 1396.66,-178.8 1595.34,-178.8 1595.34,-214.8"/>
<text text-anchor="middle" x="1496" y="-192.6" font-family="Times,serif" font-size="14.00">RestResourceDeleteComponent </text>
</g>
<!-- RestAdminModule&#45;&gt;RestResourceDeleteComponent  -->
<g id="edge10" class="edge">
<title>RestAdminModule&#45;&gt;RestResourceDeleteComponent </title>
<path fill="none" stroke="black" stroke-dasharray="5,2" d="M1422.25,-149.91C1422.25,-149.91 1422.25,-168.79 1422.25,-168.79"/>
<polygon fill="black" stroke="black" points="1418.75,-168.79 1422.25,-178.79 1425.75,-168.79 1418.75,-168.79"/>
</g>
<!-- RestMainComponentComponent  -->
<g id="node12" class="node">
<title>RestMainComponentComponent </title>
<polygon fill="#fb8072" stroke="black" points="1379.1,-214.8 1174.9,-214.8 1174.9,-178.8 1379.1,-178.8 1379.1,-214.8"/>
<text text-anchor="middle" x="1277" y="-192.6" font-family="Times,serif" font-size="14.00">RestMainComponentComponent </text>
</g>
<!-- RestAdminModule&#45;&gt;RestMainComponentComponent  -->
<g id="edge11" class="edge">
<title>RestAdminModule&#45;&gt;RestMainComponentComponent </title>
<path fill="none" stroke="black" stroke-dasharray="5,2" d="M1351.82,-149.91C1351.82,-149.91 1351.82,-168.79 1351.82,-168.79"/>
<polygon fill="black" stroke="black" points="1348.32,-168.79 1351.82,-178.79 1355.32,-168.79 1348.32,-168.79"/>
</g>
<!-- RestResourceEditorFieldsComponent  -->
<g id="node13" class="node">
<title>RestResourceEditorFieldsComponent </title>
<polygon fill="#fb8072" stroke="black" points="1156.53,-214.8 925.47,-214.8 925.47,-178.8 1156.53,-178.8 1156.53,-214.8"/>
<text text-anchor="middle" x="1041" y="-192.6" font-family="Times,serif" font-size="14.00">RestResourceEditorFieldsComponent </text>
</g>
<!-- RestAdminModule&#45;&gt;RestResourceEditorFieldsComponent  -->
<g id="edge12" class="edge">
<title>RestAdminModule&#45;&gt;RestResourceEditorFieldsComponent </title>
<path fill="none" stroke="black" stroke-dasharray="5,2" d="M1324.01,-145.8C1232.56,-145.8 1072.21,-145.8 1072.21,-145.8 1072.21,-145.8 1072.21,-168.68 1072.21,-168.68"/>
<polygon fill="black" stroke="black" points="1068.71,-168.68 1072.21,-178.68 1075.71,-168.68 1068.71,-168.68"/>
</g>
<!-- RestResourceDetailComponent  -->
<g id="node14" class="node">
<title>RestResourceDetailComponent </title>
<polygon fill="#fb8072" stroke="black" points="907.02,-214.8 710.98,-214.8 710.98,-178.8 907.02,-178.8 907.02,-214.8"/>
<text text-anchor="middle" x="809" y="-192.6" font-family="Times,serif" font-size="14.00">RestResourceDetailComponent </text>
</g>
<!-- RestAdminModule&#45;&gt;RestResourceDetailComponent  -->
<g id="edge13" class="edge">
<title>RestAdminModule&#45;&gt;RestResourceDetailComponent </title>
<path fill="none" stroke="black" stroke-dasharray="5,2" d="M1324.11,-141.8C1178.72,-141.8 827.6,-141.8 827.6,-141.8 827.6,-141.8 827.6,-168.79 827.6,-168.79"/>
<polygon fill="black" stroke="black" points="824.1,-168.79 827.6,-178.79 831.1,-168.79 824.1,-168.79"/>
</g>
<!-- AuthGuard -->
<g id="node15" class="node">
<title>AuthGuard</title>
<ellipse fill="#fdb462" stroke="black" cx="1386" cy="-66.8" rx="54.47" ry="18"/>
<text text-anchor="middle" x="1386" y="-62.6" font-family="Times,serif" font-size="14.00">AuthGuard</text>
</g>
<!-- AuthGuard&#45;&gt;RestAdminModule -->
<g id="edge14" class="edge">
<title>AuthGuard&#45;&gt;RestAdminModule</title>
<path fill="none" stroke="black" d="M1386,-84.91C1386,-84.91 1386,-103.79 1386,-103.79"/>
<polygon fill="black" stroke="black" points="1382.5,-103.79 1386,-113.79 1389.5,-103.79 1382.5,-103.79"/>
</g>
<!-- isAuthGuard -->
<g id="node16" class="node">
<title>isAuthGuard</title>
<ellipse fill="#fdb462" stroke="black" cx="1253" cy="-66.8" rx="60.85" ry="18"/>
<text text-anchor="middle" x="1253" y="-62.6" font-family="Times,serif" font-size="14.00">isAuthGuard</text>
</g>
<!-- isAuthGuard&#45;&gt;RestAdminModule -->
<g id="edge15" class="edge">
<title>isAuthGuard&#45;&gt;RestAdminModule</title>
<path fill="none" stroke="black" d="M1314.18,-66.8C1322.32,-66.8 1327.93,-66.8 1327.93,-66.8 1327.93,-66.8 1327.93,-103.69 1327.93,-103.69"/>
<polygon fill="black" stroke="black" points="1324.43,-103.69 1327.93,-113.69 1331.43,-103.69 1324.43,-103.69"/>
</g>
<!-- RestResourceService -->
<g id="node17" class="node">
<title>RestResourceService</title>
<ellipse fill="#fdb462" stroke="black" cx="1081" cy="-66.8" rx="93.18" ry="18"/>
<text text-anchor="middle" x="1081" y="-62.6" font-family="Times,serif" font-size="14.00">RestResourceService</text>
</g>
<!-- RestResourceService&#45;&gt;RestAdminModule -->
<g id="edge16" class="edge">
<title>RestResourceService&#45;&gt;RestAdminModule</title>
<path fill="none" stroke="black" d="M1165.3,-74.77C1165.3,-89.11 1165.3,-117.8 1165.3,-117.8 1165.3,-117.8 1314.23,-117.8 1314.23,-117.8"/>
<polygon fill="black" stroke="black" points="1314.23,-121.3 1324.23,-117.8 1314.23,-114.3 1314.23,-121.3"/>
</g>
<!-- RestAdminConfigService -->
<g id="node18" class="node">
<title>RestAdminConfigService</title>
<ellipse fill="#fdb462" stroke="black" cx="859" cy="-66.8" rx="110.63" ry="18"/>
<text text-anchor="middle" x="859" y="-62.6" font-family="Times,serif" font-size="14.00">RestAdminConfigService</text>
</g>
<!-- RestAdminConfigService&#45;&gt;RestAdminModule -->
<g id="edge17" class="edge">
<title>RestAdminConfigService&#45;&gt;RestAdminModule</title>
<path fill="none" stroke="black" d="M947.65,-77.67C947.65,-93.69 947.65,-121.8 947.65,-121.8 947.65,-121.8 1314.12,-121.8 1314.12,-121.8"/>
<polygon fill="black" stroke="black" points="1314.12,-125.3 1324.12,-121.8 1314.12,-118.3 1314.12,-125.3"/>
</g>
<!-- RestExportService -->
<g id="node19" class="node">
<title>RestExportService</title>
<ellipse fill="#fdb462" stroke="black" cx="647" cy="-66.8" rx="83.39" ry="18"/>
<text text-anchor="middle" x="647" y="-62.6" font-family="Times,serif" font-size="14.00">RestExportService</text>
</g>
<!-- RestExportService&#45;&gt;RestAdminModule -->
<g id="edge18" class="edge">
<title>RestExportService&#45;&gt;RestAdminModule</title>
<path fill="none" stroke="black" d="M720.72,-75.25C720.72,-91.57 720.72,-125.8 720.72,-125.8 720.72,-125.8 1314.31,-125.8 1314.31,-125.8"/>
<polygon fill="black" stroke="black" points="1314.31,-129.3 1324.31,-125.8 1314.31,-122.3 1314.31,-129.3"/>
</g>
<!-- RestLangService -->
<g id="node20" class="node">
<title>RestLangService</title>
<ellipse fill="#fdb462" stroke="black" cx="469" cy="-66.8" rx="77.01" ry="18"/>
<text text-anchor="middle" x="469" y="-62.6" font-family="Times,serif" font-size="14.00">RestLangService</text>
</g>
<!-- RestLangService&#45;&gt;RestAdminModule -->
<g id="edge19" class="edge">
<title>RestLangService&#45;&gt;RestAdminModule</title>
<path fill="none" stroke="black" d="M469,-85.02C469,-103.63 469,-129.8 469,-129.8 469,-129.8 1314.05,-129.8 1314.05,-129.8"/>
<polygon fill="black" stroke="black" points="1314.05,-133.3 1324.05,-129.8 1314.05,-126.3 1314.05,-133.3"/>
</g>
<!-- NotificationService -->
<g id="node21" class="node">
<title>NotificationService</title>
<ellipse fill="#fdb462" stroke="black" cx="287" cy="-66.8" rx="86.81" ry="18"/>
<text text-anchor="middle" x="287" y="-62.6" font-family="Times,serif" font-size="14.00">NotificationService</text>
</g>
<!-- NotificationService&#45;&gt;RestAdminModule -->
<g id="edge20" class="edge">
<title>NotificationService&#45;&gt;RestAdminModule</title>
<path fill="none" stroke="black" d="M287,-85.11C287,-104.95 287,-133.8 287,-133.8 287,-133.8 1314.16,-133.8 1314.16,-133.8"/>
<polygon fill="black" stroke="black" points="1314.16,-137.3 1324.16,-133.8 1314.16,-130.3 1314.16,-137.3"/>
</g>
<!-- RestShareService -->
<g id="node22" class="node">
<title>RestShareService</title>
<ellipse fill="#fdb462" stroke="black" cx="103" cy="-66.8" rx="79.3" ry="18"/>
<text text-anchor="middle" x="103" y="-62.6" font-family="Times,serif" font-size="14.00">RestShareService</text>
</g>
<!-- RestShareService&#45;&gt;RestAdminModule -->
<g id="edge21" class="edge">
<title>RestShareService&#45;&gt;RestAdminModule</title>
<path fill="none" stroke="black" d="M103,-85.08C103,-106.12 103,-137.8 103,-137.8 103,-137.8 1314.12,-137.8 1314.12,-137.8"/>
<polygon fill="black" stroke="black" points="1314.12,-141.3 1324.12,-137.8 1314.12,-134.3 1314.12,-141.3"/>
</g>
</g>
</svg>
